<svg viewBox="0 0 36 36" xmlns="http://www.w3.org/2000/svg"><path d="M22.244 9.453c-1.107-.051-1.44-.06-4.244-.06-2.803 0-3.135.01-4.242.06-2.848.13-4.174 1.479-4.305 4.305-.05 1.107-.061 1.439-.061 4.242s.011 3.135.061 4.244c.13 2.818 1.45 4.174 4.305 4.305 1.106.049 1.439.061 4.242.061 2.805 0 3.137-.01 4.244-.061 2.848-.13 4.172-1.482 4.305-4.305.049-1.107.06-1.44.06-4.244 0-2.803-.011-3.135-.06-4.242-.133-2.824-1.46-4.174-4.305-4.305ZM18 23.393a5.392 5.392 0 1 1 0-10.785 5.392 5.392 0 0 1 0 10.784Zm5.605-9.737a1.26 1.26 0 1 1 0-2.52 1.26 1.26 0 0 1 0 2.52ZM21.5 18a3.5 3.5 0 1 1-7 0 3.5 3.5 0 0 1 7 0ZM18 0C8.06 0 0 8.06 0 18s8.06 18 18 18 18-8.06 18-18S27.94 0 18 0Zm10.437 22.329c-.172 3.817-2.298 5.933-6.107 6.108-1.12.051-1.478.063-4.33.063-2.851 0-3.209-.012-4.329-.063-3.816-.175-5.932-2.294-6.108-6.108C7.512 21.21 7.5 20.852 7.5 18c0-2.851.012-3.209.063-4.329.176-3.816 2.294-5.932 6.108-6.106C14.791 7.511 15.149 7.5 18 7.5c2.852 0 3.21.012 4.33.064 3.818.176 5.936 2.299 6.107 6.107.051 1.12.063 1.478.063 4.329 0 2.852-.012 3.21-.063 4.329Z"/></svg>