<svg viewBox="0 0 36 36" xmlns="http://www.w3.org/2000/svg"><path d="M18 0C8.06 0 0 8.06 0 18s8.06 18 18 18 18-8.06 18-18S27.94 0 18 0Zm9.099 14.467c.274 6.06-4.245 12.816-12.246 12.816a12.19 12.19 0 0 1-6.603-1.936 8.668 8.668 0 0 0 6.378-1.784 4.318 4.318 0 0 1-4.026-2.992 4.321 4.321 0 0 0 1.947-.074c-2.072-.416-3.502-2.282-3.456-4.279a4.298 4.298 0 0 0 1.951.538 4.315 4.315 0 0 1-1.333-5.752 12.23 12.23 0 0 0 8.88 4.502c-.629-2.694 1.416-5.291 4.198-5.291 1.238 0 2.358.524 3.144 1.36a8.594 8.594 0 0 0 2.736-1.045 4.326 4.326 0 0 1-1.894 2.384 8.595 8.595 0 0 0 2.474-.68 8.648 8.648 0 0 1-2.15 2.233Z"/></svg>